<?xml version="1.0" encoding="utf-8"?>
<!-- Generator: Adobe Illustrator 21.1.0, SVG Export Plug-In . SVG Version: 6.00 Build 0)  -->
<svg version="1.1" id="Layer_1" xmlns="http://www.w3.org/2000/svg" xmlns:xlink="http://www.w3.org/1999/xlink" x="0px" y="0px"
	 width="125.5px" height="35.1px" viewBox="0 0 125.5 35.1" enable-background="new 0 0 125.5 35.1" xml:space="preserve">
<g>
	<path fill="#C6A668" d="M119.5,35.1H6c-3.3,0-6-2.7-6-6V6c0-3.3,2.7-6,6-6h113.5c3.3,0,6,2.7,6,6v23.1
		C125.5,32.4,122.8,35.1,119.5,35.1z M6,1.8C3.7,1.8,1.8,3.7,1.8,6v23.1c0,2.3,1.9,4.1,4.1,4.1h113.5c2.3,0,4.1-1.9,4.1-4.1V6
		c0-2.3-1.9-4.1-4.1-4.1H6z"/>
	<g>
		<g>
			<path fill="#C6A668" d="M10.1,21.1c0,0.1,0,0.2,0.1,0.2c0.1,0,0.2,0,0.3,0c0.1,0,0.2,0,0.4,0c0.1,0,0.1,0.1,0.1,0.3
				c0,0.2-0.1,0.3-0.2,0.3c-0.1,0-0.2,0-0.3,0c-0.1,0-0.3,0-0.4-0.1c-0.2,0-0.3-0.1-0.5-0.1c-0.2,0-0.4,0-0.5,0.1
				c-0.2,0-0.3,0.1-0.5,0.1c-0.1,0-0.2,0-0.3,0c-0.1,0-0.1-0.1,0-0.3c0-0.2,0.1-0.2,0.2-0.3c0.1,0,0.2,0,0.4,0c0.1,0,0.2,0,0.4,0
				c0.1,0,0.2-0.1,0.2-0.2l2.4-8.7c-0.1,0-0.2,0-0.3,0c-0.1,0-0.2,0-0.3,0c-0.1,0-0.2,0-0.3-0.1c-0.1,0-0.1-0.1-0.2-0.2
				c0-0.2,0-0.2,0.1-0.3c0.1,0,0.3,0,0.4,0c0.2,0,0.4,0.1,0.6,0.1c0.2,0,0.4,0.1,0.6,0.1c0.2,0,0.3,0,0.4,0c0.1,0,0.2,0.1,0.3,0.1
				c0.1,0,0.1,0.1,0.1,0.2c0,0.1,0.1,0.2,0.1,0.4l2.4,8.4c0,0.1,0.1,0.2,0.2,0.2c0.1,0,0.2,0,0.4,0c0.1,0,0.2,0,0.4,0
				c0.1,0,0.2,0.1,0.2,0.3c0,0.2,0,0.3-0.1,0.3c-0.1,0-0.3,0-0.4,0c-0.2,0-0.4,0-0.6-0.1c-0.2,0-0.4-0.1-0.6-0.1
				c-0.2,0-0.4,0-0.6,0.1c-0.2,0-0.4,0.1-0.6,0.1c-0.2,0-0.3,0-0.5,0c-0.1,0-0.2-0.1-0.2-0.3c0-0.2,0-0.2,0.1-0.3c0.1,0,0.2,0,0.3,0
				c0.1,0,0.2,0,0.3,0c0.1,0,0.1-0.1,0.1-0.2l-0.6-2.2h-3L10.1,21.1z M10.8,18.4h2.7l-1.4-4.8L10.8,18.4z"/>
			<path fill="#C6A668" d="M20,11.9c0.2,0,0.5,0,0.8-0.1c0.3,0,0.7,0,1,0c0.4,0,0.7,0.1,1.1,0.3c0.4,0.1,0.7,0.4,1,0.8
				c0.3,0.4,0.5,0.9,0.7,1.5c0.2,0.6,0.3,1.5,0.3,2.5s-0.1,1.8-0.3,2.5c-0.2,0.6-0.4,1.1-0.7,1.5c-0.3,0.4-0.6,0.6-1,0.7
				c-0.4,0.1-0.7,0.2-1.1,0.2c-0.4,0-0.7,0-1,0c-0.3,0-0.6-0.1-0.8-0.1c-0.4,0-0.7,0-1,0.1c-0.3,0-0.6,0.1-0.8,0.1
				c-0.2,0-0.4,0-0.5,0c-0.1,0-0.2-0.1-0.2-0.3c0-0.2,0.1-0.2,0.2-0.3c0.1,0,0.2,0,0.4,0c0.1,0,0.2,0,0.4,0c0.1,0,0.2-0.1,0.2-0.2
				v-8.4c0-0.1-0.1-0.2-0.2-0.2c-0.1,0-0.2,0-0.4,0c-0.1,0-0.2,0-0.4,0c-0.1,0-0.2-0.1-0.2-0.3c0-0.2,0.1-0.2,0.2-0.3
				c0.1,0,0.3,0,0.5,0c0.2,0,0.5,0.1,0.8,0.1C19.3,11.9,19.6,11.9,20,11.9z M20,21.3c0.2,0,0.5,0,0.7,0c0.2,0,0.5,0,0.7,0
				c0.2,0,0.5-0.1,0.7-0.2c0.2-0.1,0.4-0.4,0.6-0.7c0.2-0.3,0.3-0.8,0.4-1.3s0.1-1.3,0.1-2.2c0-0.9,0-1.6-0.1-2.2
				c-0.1-0.6-0.2-1-0.4-1.4c-0.2-0.3-0.3-0.6-0.6-0.7c-0.2-0.1-0.4-0.2-0.7-0.3c-0.2,0-0.5,0-0.7,0c-0.2,0-0.5,0-0.7,0V21.3z"/>
			<path fill="#C6A668" d="M28.5,11.9c0.2,0,0.5,0,0.8-0.1c0.3,0,0.7,0,1,0c0.4,0,0.7,0.1,1.1,0.3c0.4,0.1,0.7,0.4,1,0.8
				c0.3,0.4,0.5,0.9,0.7,1.5c0.2,0.6,0.3,1.5,0.3,2.5s-0.1,1.8-0.3,2.5c-0.2,0.6-0.4,1.1-0.7,1.5c-0.3,0.4-0.6,0.6-1,0.7
				c-0.4,0.1-0.7,0.2-1.1,0.2c-0.4,0-0.7,0-1,0c-0.3,0-0.6-0.1-0.8-0.1c-0.4,0-0.7,0-1,0.1c-0.3,0-0.6,0.1-0.8,0.1
				c-0.2,0-0.4,0-0.5,0c-0.1,0-0.2-0.1-0.2-0.3c0-0.2,0.1-0.2,0.2-0.3c0.1,0,0.2,0,0.4,0c0.1,0,0.2,0,0.4,0c0.1,0,0.2-0.1,0.2-0.2
				v-8.4c0-0.1-0.1-0.2-0.2-0.2c-0.1,0-0.2,0-0.4,0c-0.1,0-0.2,0-0.4,0c-0.1,0-0.2-0.1-0.2-0.3c0-0.2,0.1-0.2,0.2-0.3
				c0.1,0,0.3,0,0.5,0c0.2,0,0.5,0.1,0.8,0.1C27.8,11.9,28.2,11.9,28.5,11.9z M28.6,21.3c0.2,0,0.5,0,0.7,0c0.2,0,0.5,0,0.7,0
				c0.2,0,0.5-0.1,0.7-0.2c0.2-0.1,0.4-0.4,0.6-0.7c0.2-0.3,0.3-0.8,0.4-1.3s0.1-1.3,0.1-2.2c0-0.9,0-1.6-0.1-2.2
				c-0.1-0.6-0.2-1-0.4-1.4s-0.3-0.6-0.6-0.7c-0.2-0.1-0.4-0.2-0.7-0.3c-0.2,0-0.5,0-0.7,0c-0.2,0-0.5,0-0.7,0V21.3z"/>
			<path fill="#C6A668" d="M44.2,11.9c0.3,0,0.6,0,0.8,0s0.5,0,0.7-0.1c0.2,0,0.5,0,0.8-0.1c0.3,0,0.6,0,1,0c0.2,0,0.4,0.1,0.4,0.1
				c0.1,0.1,0.1,0.2,0.1,0.3c0,0.1-0.1,0.2-0.1,0.3c-0.1,0.1-0.1,0.2-0.1,0.4c0,0.1,0,0.2,0,0.4c0,0.1,0,0.3,0,0.4
				c0,0.1,0,0.2-0.1,0.3c0,0.1-0.1,0.1-0.3,0.1c-0.1,0-0.2-0.1-0.2-0.2c0-0.1-0.1-0.3-0.1-0.5c0-0.2,0-0.4-0.1-0.6
				c0-0.2-0.1-0.3-0.1-0.4c-0.1-0.1-0.2-0.1-0.3-0.1c-0.1,0-0.3,0-0.4,0c-0.2,0-0.4,0-0.6,0.1c-0.2,0-0.5,0-0.9,0v8.7
				c0,0.1,0.1,0.2,0.2,0.2c0.1,0,0.2,0,0.4,0c0.1,0,0.2,0,0.4,0c0.1,0,0.2,0.1,0.2,0.3c0,0.2,0,0.3-0.2,0.3c-0.1,0-0.3,0-0.4,0
				c-0.2,0-0.4,0-0.6-0.1c-0.2,0-0.4-0.1-0.6-0.1c-0.2,0-0.4,0-0.6,0.1c-0.2,0-0.4,0.1-0.6,0.1c-0.2,0-0.3,0-0.4,0
				c-0.1,0-0.2-0.1-0.2-0.3c0-0.2,0.1-0.2,0.2-0.3c0.1,0,0.2,0,0.4,0c0.1,0,0.2,0,0.4,0c0.1,0,0.2-0.1,0.2-0.2v-8.7
				c-0.3,0-0.6,0-0.9,0c-0.3,0-0.5,0-0.6,0c-0.2,0-0.3,0-0.4,0c-0.1,0-0.2,0.1-0.3,0.1C41,12.6,41,12.7,41,12.9c0,0.2,0,0.4-0.1,0.5
				c0,0.2,0,0.3-0.1,0.5c0,0.1-0.1,0.2-0.2,0.2c-0.1,0-0.2,0-0.3-0.1c0-0.1-0.1-0.2-0.1-0.3c0-0.1,0-0.3,0-0.4c0-0.1,0-0.3,0-0.4
				c0-0.1,0-0.2-0.1-0.4c-0.1-0.1-0.1-0.2-0.1-0.3c0-0.1,0-0.2,0.1-0.3c0.1-0.1,0.2-0.1,0.4-0.1c0.4,0,0.7,0,1,0
				c0.3,0,0.5,0,0.8,0.1s0.5,0.1,0.7,0.1s0.5,0,0.8,0H44.2z"/>
			<path fill="#C6A668" d="M51.9,11.9c0.6,0,1,0.1,1.4,0.2c0.4,0.2,0.7,0.4,1,0.6c0.3,0.3,0.5,0.6,0.6,0.9c0.1,0.4,0.3,0.7,0.3,1.1
				c0.1,0.4,0.1,0.8,0.1,1.1c0,0.4,0,0.7,0,1.1c0,0.5,0,1.1-0.1,1.6c-0.1,0.6-0.2,1.1-0.5,1.6c-0.2,0.5-0.6,0.9-1.1,1.2
				c-0.5,0.3-1.1,0.5-1.9,0.5c-0.8,0-1.4-0.2-1.9-0.5c-0.5-0.3-0.8-0.7-1.1-1.2s-0.4-1-0.5-1.6c-0.1-0.6-0.1-1.1-0.1-1.6
				c0-0.3,0-0.7,0-1.1c0-0.4,0.1-0.8,0.1-1.1c0.1-0.4,0.2-0.7,0.3-1.1c0.1-0.4,0.4-0.7,0.6-0.9c0.3-0.3,0.6-0.5,1-0.6
				C50.9,12,51.4,11.9,51.9,11.9z M51.9,21.3c0.5,0,0.9-0.1,1.2-0.4c0.3-0.3,0.4-0.6,0.5-1.1c0.1-0.4,0.1-0.9,0.1-1.4
				c0-0.5,0-1,0-1.4c0-0.3,0-0.6,0-0.9c0-0.3,0-0.7,0-1c0-0.3-0.1-0.6-0.1-1s-0.2-0.6-0.3-0.8s-0.3-0.4-0.5-0.6
				c-0.2-0.1-0.5-0.2-0.9-0.2c-0.3,0-0.6,0.1-0.9,0.2c-0.2,0.1-0.4,0.3-0.5,0.6s-0.2,0.5-0.3,0.8c-0.1,0.3-0.1,0.6-0.1,1
				c0,0.3,0,0.7,0,1c0,0.3,0,0.6,0,0.9c0,0.4,0,0.9,0,1.4c0,0.5,0,1,0.1,1.4c0.1,0.4,0.3,0.8,0.5,1.1C51,21.2,51.4,21.3,51.9,21.3z"
				/>
			<path fill="#C6A668" d="M67.4,15.4c0-0.4-0.1-0.7-0.1-1c-0.1-0.3-0.2-0.6-0.3-0.9c-0.1-0.3-0.3-0.5-0.6-0.6
				c-0.2-0.2-0.5-0.2-0.9-0.2c-0.4,0-0.7,0.1-1,0.2c-0.3,0.1-0.5,0.3-0.6,0.6s-0.3,0.5-0.4,0.8c-0.1,0.3-0.1,0.6-0.2,1
				c0,0.3,0,0.7,0,1c0,0.3,0,0.6,0,0.9c0,0.4,0,0.9,0,1.4c0,0.5,0.1,1,0.2,1.4c0.1,0.4,0.3,0.8,0.6,1.1c0.3,0.3,0.8,0.4,1.4,0.4
				c0.3,0,0.6-0.1,0.8-0.3c0.2-0.2,0.3-0.4,0.4-0.7c0.1-0.3,0.1-0.6,0.2-0.9c0-0.3,0-0.6,0-0.9c0-0.1,0.1-0.2,0.2-0.3
				c0.1-0.1,0.2-0.1,0.4-0.1c0.1,0,0.2,0,0.4,0.1c0.1,0.1,0.2,0.2,0.2,0.3c0,0.4,0,0.8-0.1,1.2s-0.2,0.8-0.4,1.1
				c-0.2,0.3-0.5,0.6-0.8,0.8c-0.4,0.2-0.8,0.3-1.4,0.3c-0.8,0-1.4-0.2-1.9-0.5c-0.5-0.3-0.8-0.7-1.1-1.2s-0.4-1-0.5-1.6
				c-0.1-0.6-0.1-1.1-0.1-1.6c0-0.3,0-0.7,0-1.1c0-0.4,0.1-0.8,0.1-1.1c0.1-0.4,0.2-0.7,0.3-1.1c0.1-0.4,0.4-0.7,0.6-0.9
				c0.3-0.3,0.6-0.5,1-0.6c0.4-0.2,0.9-0.2,1.4-0.2c0.4,0,0.7,0.1,1,0.2c0.3,0.1,0.5,0.3,0.7,0.5c0.1,0.1,0.1,0.1,0.2,0.1
				c0,0,0.1,0,0.1,0c0,0,0.1,0,0.1-0.1c0-0.1,0-0.2,0-0.3c0-0.1,0-0.2,0.1-0.3c0.1-0.1,0.2-0.1,0.2-0.1c0.1,0,0.2,0,0.2,0.1
				c0.1,0.1,0.1,0.2,0.1,0.3c0,0.1-0.1,0.2-0.1,0.4s0,0.4,0,0.6c0,0.2,0,0.4,0,0.7c0,0.2,0,0.5,0,0.7c0,0.1,0,0.2,0,0.3
				c0,0.1,0,0.2,0,0.3c0,0.1,0,0.2-0.1,0.3c-0.1,0.1-0.1,0.1-0.2,0.1c-0.1,0-0.2,0-0.2-0.1C67.4,15.6,67.4,15.5,67.4,15.4z"/>
			<path fill="#C6A668" d="M70.6,21.1c0,0.1,0,0.2,0.1,0.2c0.1,0,0.2,0,0.3,0c0.1,0,0.2,0,0.4,0c0.1,0,0.1,0.1,0.1,0.3
				c0,0.2-0.1,0.3-0.2,0.3c-0.1,0-0.2,0-0.3,0c-0.1,0-0.3,0-0.4-0.1c-0.2,0-0.3-0.1-0.5-0.1c-0.2,0-0.4,0-0.5,0.1
				c-0.2,0-0.3,0.1-0.5,0.1c-0.1,0-0.2,0-0.3,0c-0.1,0-0.1-0.1,0-0.3c0-0.2,0.1-0.2,0.2-0.3c0.1,0,0.2,0,0.4,0c0.1,0,0.2,0,0.4,0
				c0.1,0,0.2-0.1,0.2-0.2l2.4-8.7c-0.1,0-0.2,0-0.3,0c-0.1,0-0.2,0-0.3,0c-0.1,0-0.2,0-0.3-0.1c-0.1,0-0.1-0.1-0.2-0.2
				c0-0.2,0-0.2,0.1-0.3c0.1,0,0.3,0,0.4,0c0.2,0,0.4,0.1,0.6,0.1c0.2,0,0.4,0.1,0.6,0.1c0.2,0,0.3,0,0.4,0c0.1,0,0.2,0.1,0.3,0.1
				c0.1,0,0.1,0.1,0.1,0.2c0,0.1,0.1,0.2,0.1,0.4l2.4,8.4c0,0.1,0.1,0.2,0.2,0.2c0.1,0,0.2,0,0.4,0c0.1,0,0.2,0,0.4,0
				c0.1,0,0.2,0.1,0.2,0.3c0,0.2,0,0.3-0.1,0.3c-0.1,0-0.3,0-0.4,0c-0.2,0-0.4,0-0.6-0.1c-0.2,0-0.4-0.1-0.6-0.1
				c-0.2,0-0.4,0-0.6,0.1c-0.2,0-0.4,0.1-0.6,0.1c-0.2,0-0.3,0-0.5,0c-0.1,0-0.2-0.1-0.2-0.3c0-0.2,0-0.2,0.1-0.3c0.1,0,0.2,0,0.3,0
				c0.1,0,0.2,0,0.3,0c0.1,0,0.1-0.1,0.1-0.2l-0.6-2.2h-3L70.6,21.1z M71.4,18.4h2.7l-1.4-4.8L71.4,18.4z"/>
			<path fill="#C6A668" d="M80.6,21.1c0,0.1,0.1,0.2,0.2,0.2c0.1,0,0.2,0,0.3,0c0.1,0,0.2,0,0.4,0c0.1,0,0.2,0.1,0.2,0.3
				c0,0.2-0.1,0.3-0.2,0.3c-0.1,0-0.3,0-0.4,0c-0.2,0-0.4,0-0.6-0.1c-0.2,0-0.4-0.1-0.6-0.1c-0.2,0-0.4,0-0.6,0.1
				c-0.2,0-0.4,0.1-0.6,0.1c-0.2,0-0.3,0-0.4,0c-0.1,0-0.2-0.1-0.2-0.3c0-0.2,0.1-0.2,0.2-0.3c0.1,0,0.2,0,0.4,0c0.1,0,0.2,0,0.4,0
				c0.1,0,0.2-0.1,0.2-0.2v-8.4c0-0.1-0.1-0.2-0.2-0.2c-0.1,0-0.2,0-0.4,0c-0.1,0-0.2,0-0.4,0c-0.1,0-0.2-0.1-0.2-0.3
				c0-0.2,0.1-0.2,0.2-0.3c0.1,0,0.3,0,0.5,0c0.2,0,0.5,0.1,0.8,0.1c0.3,0,0.6,0.1,1,0.1c0.2,0,0.5,0,0.8,0c0.3,0,0.6,0,1,0
				c0.3,0,0.7,0.1,1,0.1c0.3,0.1,0.6,0.2,0.9,0.3c0.3,0.2,0.5,0.4,0.6,0.7c0.2,0.3,0.2,0.7,0.2,1.1c0,0.4-0.1,0.8-0.2,1.1
				c-0.1,0.3-0.3,0.5-0.5,0.7c-0.2,0.2-0.5,0.4-0.7,0.5c-0.3,0.1-0.6,0.2-0.9,0.3c0.5,0.2,0.9,0.4,1.2,0.7c0.3,0.3,0.5,0.6,0.7,1
				c0.1,0.3,0.2,0.7,0.3,1c0,0.3,0.1,0.7,0.1,1c0,0.3,0.1,0.5,0.1,0.7c0.1,0.2,0.2,0.3,0.3,0.3c0.2,0,0.3,0,0.4,0.1
				c0.1,0.1,0.1,0.1,0.1,0.2c0,0.1,0,0.1-0.1,0.2c-0.1,0.1-0.2,0.1-0.4,0.1c-0.5,0-0.9-0.1-1.1-0.2c-0.3-0.1-0.5-0.3-0.6-0.6
				c-0.1-0.2-0.2-0.5-0.3-0.8c-0.1-0.3-0.1-0.6-0.1-0.9c0-0.3-0.1-0.6-0.2-0.9c-0.1-0.3-0.2-0.6-0.4-0.8c-0.2-0.2-0.4-0.4-0.8-0.6
				c-0.3-0.1-0.8-0.2-1.3-0.2V21.1z M83.4,14.2c0-0.6-0.1-1-0.2-1.2c-0.2-0.3-0.4-0.4-0.6-0.5c-0.3-0.1-0.6-0.1-0.9-0.1
				c-0.3,0-0.7,0-1,0v4c0.4,0,0.8,0,1.2,0c0.4,0,0.6-0.1,0.9-0.2c0.2-0.1,0.4-0.4,0.5-0.7C83.3,15.2,83.4,14.8,83.4,14.2z"/>
			<path fill="#C6A668" d="M90.4,11.9c0.3,0,0.6,0,0.8,0c0.2,0,0.5,0,0.7-0.1c0.2,0,0.5,0,0.8-0.1s0.6,0,1,0c0.2,0,0.4,0.1,0.4,0.1
				c0.1,0.1,0.1,0.2,0.1,0.3c0,0.1-0.1,0.2-0.1,0.3c-0.1,0.1-0.1,0.2-0.1,0.4c0,0.1,0,0.2,0,0.4c0,0.1,0,0.3,0,0.4
				c0,0.1,0,0.2-0.1,0.3c0,0.1-0.1,0.1-0.3,0.1c-0.1,0-0.2-0.1-0.2-0.2c0-0.1-0.1-0.3-0.1-0.5c0-0.2,0-0.4-0.1-0.6
				c0-0.2-0.1-0.3-0.1-0.4c-0.1-0.1-0.2-0.1-0.3-0.1c-0.1,0-0.3,0-0.4,0c-0.2,0-0.4,0-0.6,0.1c-0.2,0-0.5,0-0.9,0v8.7
				c0,0.1,0.1,0.2,0.2,0.2c0.1,0,0.2,0,0.3,0c0.1,0,0.2,0,0.4,0c0.1,0,0.2,0.1,0.2,0.3c0,0.2,0,0.3-0.2,0.3c-0.1,0-0.3,0-0.4,0
				c-0.2,0-0.4,0-0.6-0.1c-0.2,0-0.4-0.1-0.6-0.1c-0.2,0-0.4,0-0.6,0.1c-0.2,0-0.4,0.1-0.6,0.1c-0.2,0-0.3,0-0.4,0
				c-0.1,0-0.2-0.1-0.2-0.3c0-0.2,0.1-0.2,0.2-0.3c0.1,0,0.2,0,0.4,0c0.1,0,0.2,0,0.4,0c0.1,0,0.2-0.1,0.2-0.2v-8.7
				c-0.3,0-0.6,0-0.9,0c-0.2,0-0.5,0-0.6,0c-0.2,0-0.3,0-0.4,0c-0.1,0-0.2,0.1-0.3,0.1c-0.1,0.1-0.1,0.2-0.1,0.4
				c0,0.2,0,0.4-0.1,0.5c0,0.2,0,0.3-0.1,0.5c0,0.1-0.1,0.2-0.2,0.2s-0.2,0-0.3-0.1c0-0.1-0.1-0.2-0.1-0.3c0-0.1,0-0.3,0-0.4
				c0-0.1,0-0.3,0-0.4c0-0.1,0-0.2-0.1-0.4c-0.1-0.1-0.1-0.2-0.1-0.3c0-0.1,0-0.2,0.1-0.3c0.1-0.1,0.2-0.1,0.4-0.1c0.4,0,0.7,0,1,0
				s0.5,0,0.8,0.1c0.2,0,0.5,0.1,0.7,0.1c0.2,0,0.5,0,0.8,0H90.4z"/>
		</g>
		<g>
			<path fill="#C6A668" d="M113.8,10.5h3.5v1h-2.7l-0.2,1.5l-1,7.3h-11.6l-1.1-7.8h12.8L113.8,10.5z M103.5,20.8
				c0.2,0,0.5,0,0.7,0.1c0.2,0.1,0.4,0.2,0.5,0.4c0.2,0.2,0.3,0.3,0.4,0.5c0.1,0.2,0.1,0.4,0.1,0.7c0,0.2,0,0.5-0.1,0.7
				c-0.1,0.2-0.2,0.4-0.4,0.6s-0.3,0.3-0.5,0.4c-0.2,0.1-0.4,0.1-0.7,0.1s-0.5,0-0.7-0.1c-0.2-0.1-0.4-0.2-0.6-0.4s-0.3-0.3-0.4-0.6
				c-0.1-0.2-0.1-0.4-0.1-0.7c0-0.2,0-0.5,0.1-0.7c0.1-0.2,0.2-0.4,0.4-0.5c0.2-0.2,0.3-0.3,0.6-0.4C103,20.8,103.2,20.8,103.5,20.8
				z M112.6,19.3l0.8-5.9h-11.6l0.8,5.9H112.6z M103.5,23.2c0.1,0,0.2,0,0.3-0.1c0.1,0,0.2-0.1,0.2-0.2c0.1-0.1,0.1-0.1,0.1-0.2
				c0-0.1,0-0.2,0-0.3c0-0.1,0-0.2,0-0.3c0-0.1-0.1-0.2-0.1-0.2c-0.1-0.1-0.1-0.1-0.2-0.1c-0.1,0-0.2,0-0.3,0c-0.1,0-0.2,0-0.3,0
				c-0.1,0-0.2,0.1-0.2,0.1s-0.1,0.1-0.2,0.2c0,0.1-0.1,0.2-0.1,0.3c0,0.1,0,0.2,0.1,0.3c0,0.1,0.1,0.2,0.2,0.2s0.1,0.1,0.2,0.2
				C103.3,23.2,103.4,23.2,103.5,23.2z M104.7,11.5v-0.9h5.9v0.9h1V9.6h-7.8v1.9H104.7z M111.5,18.3v-3.9h-1v2.9h-5.9v-2.9h-1v3.9
				H111.5z M111.8,20.8c0.2,0,0.5,0,0.7,0.1c0.2,0.1,0.4,0.2,0.5,0.4c0.2,0.2,0.3,0.3,0.4,0.5c0.1,0.2,0.1,0.4,0.1,0.7
				c0,0.2,0,0.5-0.1,0.7c-0.1,0.2-0.2,0.4-0.4,0.6c-0.2,0.2-0.3,0.3-0.5,0.4c-0.2,0.1-0.4,0.1-0.7,0.1s-0.5,0-0.7-0.1
				c-0.2-0.1-0.4-0.2-0.6-0.4s-0.3-0.3-0.4-0.6c-0.1-0.2-0.1-0.4-0.1-0.7c0-0.2,0-0.5,0.1-0.7c0.1-0.2,0.2-0.4,0.4-0.5
				c0.2-0.2,0.3-0.3,0.6-0.4C111.3,20.8,111.5,20.8,111.8,20.8z M111.8,23.2c0.1,0,0.2,0,0.3-0.1c0.1,0,0.2-0.1,0.2-0.2
				s0.1-0.1,0.1-0.2c0-0.1,0-0.2,0-0.3c0-0.1,0-0.2,0-0.3c0-0.1-0.1-0.2-0.1-0.2s-0.1-0.1-0.2-0.1c-0.1,0-0.2,0-0.3,0
				c-0.1,0-0.2,0-0.3,0c-0.1,0-0.2,0.1-0.2,0.1c-0.1,0.1-0.1,0.1-0.2,0.2c0,0.1-0.1,0.2-0.1,0.3c0,0.1,0,0.2,0.1,0.3
				c0,0.1,0.1,0.2,0.2,0.2c0.1,0.1,0.1,0.1,0.2,0.2C111.5,23.2,111.6,23.2,111.8,23.2z"/>
		</g>
	</g>
</g>
</svg>
